<?xml version="1.0" standalone="no"?>
<!DOCTYPE svg PUBLIC "-//W3C//DTD SVG 20010904//EN"
 "http://www.w3.org/TR/2001/REC-SVG-20010904/DTD/svg10.dtd">
<svg version="1.0" xmlns="http://www.w3.org/2000/svg"
 width="300.000000pt" height="300.000000pt" viewBox="0 0 300.000000 300.000000"
 preserveAspectRatio="xMidYMid meet">
<metadata>
Created by potrace 1.10, written by Peter Selinger 2001-2011
</metadata>
<g transform="translate(0.000000,300.000000) scale(0.100000,-0.100000)"
fill="#000000" stroke="none">
<path d="M841 2247 c-15 -15 -14 -62 2 -74 6 -6 30 -13 52 -17 57 -10 93 -25
100 -44 4 -10 9 -120 11 -247 3 -140 9 -234 16 -242 7 -9 43 -13 118 -13 88 0
110 3 121 17 11 12 14 65 15 233 0 119 4 228 7 242 7 27 38 44 98 52 54 8 69
16 75 43 4 15 0 30 -11 43 -16 17 -35 19 -305 18 -196 0 -292 -4 -299 -11z
m589 -40 c0 -21 -5 -24 -46 -26 -57 -3 -84 -13 -109 -41 -19 -21 -20 -38 -23
-266 l-3 -245 -104 3 -105 3 -3 230 c-3 160 -8 238 -17 257 -16 34 -62 56
-123 59 -43 3 -47 5 -47 28 l0 26 290 -3 290 -3 0 -22z"/>
<path d="M1679 2233 c-21 -40 1 -64 78 -83 93 -23 62 -105 -127 -340 -43 -52
-89 -113 -104 -135 -25 -37 -26 -40 -10 -52 10 -7 30 -13 45 -13 35 0 57 24
279 313 25 31 48 57 52 57 5 0 8 6 8 13 0 37 166 157 217 157 33 0 63 29 63
60 0 16 -6 32 -12 37 -7 4 -117 9 -245 9 l-231 1 -13 -24z m476 -25 c-1 -17
-12 -24 -56 -35 -101 -25 -148 -68 -342 -315 -160 -204 -181 -228 -207 -228
-29 0 -26 5 87 148 177 224 216 294 198 351 -8 25 -45 46 -97 55 -30 6 -38 11
-38 29 l0 22 228 -3 c226 -3 229 -3 227 -24z"/>
<path d="M1076 1555 c-9 -9 -16 -33 -16 -53 -1 -33 -2 -35 -13 -17 -6 11 -12
31 -12 45 0 22 -4 25 -40 25 -38 0 -40 -2 -43 -34 -6 -61 4 -82 41 -79 17 1
38 6 45 11 8 7 21 6 38 -4 32 -17 44 -2 44 57 0 50 -20 73 -44 49z m-46 -14
c0 -6 -4 -13 -10 -16 -5 -3 -10 1 -10 9 0 9 5 16 10 16 6 0 10 -4 10 -9z m-40
-14 c0 -8 11 -24 25 -37 29 -27 25 -42 -5 -15 -18 16 -20 16 -20 2 0 -10 -6
-17 -13 -17 -9 0 -11 12 -9 40 2 22 8 40 13 40 5 0 9 -6 9 -13z m112 -27 c2
-28 0 -40 -9 -40 -8 0 -13 14 -13 40 0 22 4 40 9 40 5 0 11 -18 13 -40z"/>
<path d="M1539 1555 c-12 -12 -20 -13 -46 -3 -43 16 -63 -1 -63 -53 0 -32 5
-42 25 -51 21 -9 28 -8 45 7 19 17 21 17 41 -1 19 -17 23 -17 47 -3 44 24 50
122 7 105 -10 -3 -23 -2 -29 4 -8 6 -17 5 -27 -5z m69 -47 c-3 -38 -6 -43 -28
-43 -21 0 -26 6 -31 38 -4 24 -2 37 5 37 6 0 11 -14 11 -32 0 -17 6 -33 13
-35 8 -3 12 8 12 36 0 23 5 41 11 41 6 0 9 -17 7 -42z m-143 23 c-3 -5 4 -16
16 -25 26 -17 19 -46 -10 -46 -22 0 -36 16 -22 24 5 4 11 0 14 -6 2 -7 8 -9
13 -5 5 5 1 14 -9 21 -19 14 -23 46 -6 46 5 0 8 -4 4 -9z m30 -1 c3 -5 1 -10
-4 -10 -6 0 -11 5 -11 10 0 6 2 10 4 10 3 0 8 -4 11 -10z"/>
<path d="M1871 1551 c-15 -28 -14 -86 3 -100 16 -14 69 -7 74 9 3 7 11 5 22
-5 9 -8 27 -13 41 -11 13 3 27 5 31 5 4 1 6 25 5 54 l-2 52 -35 0 c-32 0 -35
-3 -40 -35 -3 -20 -11 -34 -18 -32 -7 1 -12 -5 -12 -13 0 -10 -10 -15 -30 -15
-28 0 -30 2 -30 40 0 22 5 40 10 40 6 0 10 -16 10 -35 0 -45 24 -47 39 -3 13
35 4 51 -36 62 -16 5 -25 2 -32 -13z m67 -19 c6 -18 -15 -14 -22 4 -4 10 -1
14 6 12 6 -2 14 -10 16 -16z m62 9 c0 -6 -4 -13 -10 -16 -5 -3 -10 1 -10 9 0
9 5 16 10 16 6 0 10 -4 10 -9z m18 -38 c-27 -48 -27 -47 -34 -40 -8 7 34 77
46 77 5 0 0 -17 -12 -37z m22 -33 c0 -5 -8 -10 -17 -10 -15 0 -16 2 -3 10 19
12 20 12 20 0z"/>
<path d="M1165 1540 c-10 -11 -15 -20 -11 -20 3 0 0 -13 -8 -29 -14 -26 -14
-30 2 -36 33 -14 75 -10 86 8 9 13 7 25 -9 54 -24 45 -36 49 -60 23z m39 -24
c3 -13 9 -31 12 -40 3 -9 2 -16 -4 -16 -5 0 -13 11 -16 24 -3 13 -9 31 -12 40
-3 9 -2 16 4 16 5 0 13 -11 16 -24z m-28 -31 c0 -14 -7 -25 -14 -25 -7 0 -11
3 -9 8 2 4 7 15 10 25 9 25 15 21 13 -8z"/>
<path d="M1264 1548 c-11 -18 -8 -89 4 -97 14 -8 54 -7 70 3 7 4 12 25 12 46
0 31 -3 38 -15 34 -8 -4 -15 -2 -15 4 0 6 6 12 12 14 7 3 -4 5 -24 6 -21 1
-40 -4 -44 -10z m46 -38 c12 -17 20 -35 18 -41 -2 -6 -16 7 -31 30 -31 47 -20
57 13 11z m-20 -36 c0 -8 -8 -14 -17 -13 -10 0 -13 3 -6 5 7 3 9 12 6 21 -4
11 -2 14 5 9 7 -4 12 -14 12 -22z"/>
<path d="M1673 1548 c-18 -25 -32 -88 -20 -95 20 -12 68 -11 81 3 12 11 16 11
26 -1 13 -16 66 -17 79 -1 14 18 10 69 -7 89 -19 21 -68 23 -76 1 -3 -9 -6
-28 -7 -42 0 -25 -2 -23 -22 16 -21 43 -37 52 -54 30z m40 -48 c12 -31 13 -40
2 -40 -7 0 -15 10 -18 23 -2 12 -8 30 -12 40 -4 9 -3 17 2 17 6 0 17 -18 26
-40z m79 0 c2 -23 -1 -40 -7 -40 -5 0 -10 18 -10 40 0 22 3 40 6 40 4 0 9 -18
11 -40z m34 29 c3 -6 1 -16 -5 -22 -8 -8 -6 -16 6 -29 9 -10 11 -18 5 -18 -16
0 -27 21 -27 53 0 28 9 35 21 16z m-148 -44 c-1 -14 -8 -25 -15 -25 -10 0 -10
6 -1 25 6 14 13 25 14 25 2 0 3 -11 2 -25z"/>
<path d="M1039 1388 c-11 -4 -22 -13 -24 -20 -3 -7 -7 -146 -9 -308 -2 -162
-7 -303 -11 -313 -10 -24 -31 -34 -90 -42 -61 -9 -75 -19 -75 -55 0 -15 6 -32
13 -38 7 -6 118 -10 304 -9 290 0 291 0 303 22 16 30 4 64 -23 69 -99 21 -129
30 -137 45 -5 9 -10 156 -13 325 -4 321 -4 324 -47 327 -60 5 -175 3 -191 -3z
m211 -319 c0 -377 0 -376 133 -395 39 -5 47 -10 47 -28 0 -21 0 -21 -290 -21
-290 0 -290 0 -290 21 0 18 8 23 48 28 70 10 101 25 120 60 14 27 17 73 19
326 2 162 3 298 3 303 0 4 47 7 105 7 l105 0 0 -301z"/>
<path d="M1433 1392 c-41 -6 -45 -26 -16 -68 139 -203 377 -563 384 -583 11
-28 10 -30 -26 -37 -48 -9 -65 -23 -65 -54 0 -35 29 -59 68 -54 32 4 396 5
432 1 31 -4 60 19 60 48 0 26 -35 65 -59 65 -10 0 -39 14 -64 31 -35 23 -78
75 -169 202 -68 94 -125 176 -127 182 -2 5 -7 12 -10 15 -4 3 -44 57 -90 120
-45 63 -90 119 -99 125 -16 9 -169 14 -219 7z m414 -312 c112 -157 221 -303
243 -326 36 -36 76 -60 133 -78 9 -3 17 -15 17 -28 l0 -23 -255 0 c-253 0
-255 0 -255 21 0 17 8 23 42 28 49 8 68 21 68 47 0 20 -365 575 -408 622 l-26
28 119 -3 119 -3 203 -285z"/>
</g>
</svg>
